<?xml version="1.0" encoding="utf-8"?>
<!-- Generator: Adobe Illustrator 16.2.1, SVG Export Plug-In . SVG Version: 6.00 Build 0)  -->
<!DOCTYPE svg PUBLIC "-//W3C//DTD SVG 1.1 Basic//EN" "http://www.w3.org/Graphics/SVG/1.1/DTD/svg11-basic.dtd">
<svg version="1.1" baseProfile="basic" id="Ebene_1"
	 xmlns="http://www.w3.org/2000/svg" xmlns:xlink="http://www.w3.org/1999/xlink" x="0px" y="0px" width="478.289px"
	 height="612.422px" viewBox="0 0 478.289 612.422" xml:space="preserve">
<style type="text/css">
<![CDATA[
	.st0{fill:#FFFFFF;stroke:#FFFFFF;stroke-width:0;stroke-miterlimit:3.011;}
	.st1{fill:#FFFFFF;stroke:#FFFFFF;stroke-width:0;stroke-miterlimit:6.646;}
	.st2{fill:#FFFFFF;}
	.st3{fill:#FFFFFF;stroke:#1A171B;stroke-width:0;stroke-miterlimit:4.584;}
]]>
</style>
<path class="st3" d="M186.623,413.661h1.54l16.721,24.273h7.553l-17.6-24.787c8.507-0.734,13.86-6.748,13.86-15.254
	c0-12.467-9.754-15.254-20.241-15.254h-7.993v55.295h6.16V413.661z M186.623,388.358h1.833c7.407,0,14.081,0.881,14.081,9.975
	c0,8.58-7.04,9.9-14.007,9.9h-1.907V388.358z M238.397,379.485l20.096,46.422l20.167-46.422l11.219,58.449h-6.306l-7.114-37.4
	h-0.146l-17.819,39.674l-17.749-39.674h-0.146l-7.114,37.4h-6.307L238.397,379.485z M337.402,416.52h-18.701l9.46-22.148
	L337.402,416.52z M339.822,422.241l6.526,15.693h6.82l-24.861-57.936l-25.521,57.936h6.747l6.674-15.693H339.822z M33.865,393.418
	c-2.2-3.812-4.84-6.014-9.533-6.014c-4.914,0-9.167,3.521-9.167,8.58c0,4.768,4.913,6.967,8.653,8.654l3.667,1.613
	c7.187,3.154,13.274,6.746,13.274,15.549c0,9.68-7.774,17.086-17.381,17.086c-8.873,0-15.474-5.721-17.234-14.301l6.014-1.686
	c0.807,5.646,5.133,10.266,11.074,10.266c5.94,0,11.367-4.547,11.367-10.779c0-6.453-5.06-8.654-10.194-11l-3.373-1.467
	c-6.454-2.934-12.027-6.234-12.027-14.154c0-8.58,7.26-14.08,15.473-14.08c6.161,0,11.368,3.152,14.301,8.58L33.865,393.418z
	 M75.446,437.934h-6.16v-49.576H55.939v-5.719H88.94v5.719H75.446V437.934z M132.281,387.405c12.687,0,22.661,10.342,22.661,22.881
	c0,12.467-10.121,22.881-22.661,22.881s-22.661-10.414-22.661-22.881C109.62,397.747,119.594,387.405,132.281,387.405z
	 M132.281,381.686c-15.767,0-28.821,12.834-28.821,28.674c0,15.914,13.054,28.527,28.821,28.527s28.821-12.613,28.821-28.527
	C161.102,394.52,148.048,381.686,132.281,381.686z M376.341,413.661h1.54l16.721,24.273h7.555l-17.601-24.787
	c8.506-0.734,13.859-6.748,13.859-15.254c0-12.467-9.754-15.254-20.241-15.254h-7.993v55.295h6.16V413.661z M376.341,388.358h1.833
	c7.407,0,14.082,0.881,14.082,9.975c0,8.58-7.041,9.9-14.008,9.9h-1.907V388.358z M421.296,380.292l43.121,45.176v-42.83h6.16
	v57.789l-43.121-45.1v42.607h-6.16V380.292z"/>
<path class="st0" d="M71.052,557.69v22.309h0.097c1.349-2.41,4.047-3.711,6.793-3.711c6.36,0,7.998,4.289,7.998,9.781v13.441h-4.336
	v-12.912c0-3.854-0.53-6.455-4.963-6.455c-5.589,0-5.589,4.914-5.589,9.01v10.357h-4.336v-41.82H71.052z M122.076,576.963h-4.336
	v22.549h4.336V588.43c0-3.662,0.578-7.998,5.252-7.998c1.011,0,1.879,0.24,2.65,0.914l1.975-3.949
	c-1.06-0.676-2.313-1.109-3.565-1.109c-2.891,0-5.108,1.688-6.167,4.336h-0.145V576.963z M175.363,585.684
	c-0.53-3.373-2.747-5.639-6.216-5.639c-3.372,0-5.878,2.41-6.408,5.639H175.363z M162.5,588.959
	c0.048,3.854,2.649,7.469,6.793,7.469c3.324,0,5.107-1.688,6.745-4.385l3.662,2.07c-2.12,3.904-6.071,6.168-10.455,6.168
	c-6.89,0-11.082-5.203-11.082-11.852c0-6.939,3.71-12.143,10.985-12.143c7.179,0,10.552,5.299,10.552,11.996v0.676H162.5z
	 M213.281,576.963h-4.336v22.549h4.336v-10.359c0-4.096,0-9.01,5.589-9.01c4.433,0,4.963,2.602,4.963,6.455v12.914h4.336v-13.443
	c0-5.492-1.638-9.781-7.998-9.781c-2.746,0-5.445,1.301-6.794,3.709h-0.096V576.963z M272.253,580.239
	c-1.203-2.457-3.421-3.951-6.167-3.951c-3.661,0-6.649,2.891-6.649,6.553c0,3.084,1.832,4.336,4.336,5.686l4.241,2.266
	c1.011,0.674,1.589,1.252,1.589,2.457c0,1.926-1.589,3.18-3.421,3.18c-2.071,0-3.18-1.205-4.095-2.891l-3.71,1.686
	c1.205,3.18,4.53,5.059,7.805,5.059c4.192,0,7.758-3.18,7.758-7.469c0-3.564-2.554-5.203-5.204-6.408
	c-2.649-1.203-5.251-2.07-5.251-4.047c0-1.252,1.155-2.215,2.36-2.215c1.253,0,2.361,0.867,2.891,1.975L272.253,580.239z
	 M303.377,557.69h4.337v23.031h0.096c1.783-2.699,4.48-4.434,7.854-4.434c6.504,0,10.6,5.639,10.6,11.805
	c0,6.455-3.854,12.189-10.794,12.189c-3.18,0-5.926-1.734-7.66-4.289h-0.096v3.52h-4.337V557.69z M321.927,588.237
	c0-4.385-2.649-8.094-7.324-8.094c-4.48,0-7.13,3.902-7.13,8.094c0,4.24,2.554,8.191,7.13,8.191
	C319.327,596.428,321.927,592.668,321.927,588.237z M355.847,576.963v12.961c0,6.166,2.89,10.357,9.539,10.357
	s9.541-4.191,9.541-10.357v-12.961h-4.338v12.479c0,3.613-0.915,6.793-5.203,6.793s-5.204-3.18-5.204-6.793v-12.479H355.847z
	 M410.869,576.963h-4.336v22.549h4.336V588.43c0-3.662,0.578-7.998,5.251-7.998c1.012,0,1.879,0.24,2.65,0.914l1.975-3.949
	c-1.06-0.676-2.312-1.109-3.563-1.109c-2.892,0-5.108,1.688-6.167,4.336h-0.146V576.963z M469.792,599.077
	c0,7.758-2.216,13.346-10.984,13.346c-6.265,0-10.793-3.854-10.89-10.213h4.337c0,4.047,2.794,6.359,6.744,6.359
	c5.349,0,6.457-3.662,6.457-8.287v-4.289h-0.096c-1.734,2.555-4.482,4.289-7.662,4.289c-6.938,0-10.791-5.734-10.791-12.189
	c0-6.166,4.095-11.805,10.599-11.805c3.372,0,6.07,1.734,7.854,4.529h0.096v-3.855h4.336V599.077z M465.697,588.237
	c0-4.385-2.648-8.094-7.323-8.094c-4.479,0-7.13,3.902-7.13,8.094c0,4.24,2.553,8.191,7.13,8.191
	C463.097,596.428,465.697,592.668,465.697,588.237z M21.283,571.565l-6.456,14.695h12.912L21.283,571.565z M12.948,590.405
	l-4.144,9.105H3.938l17.345-37.869l17.345,37.869h-4.866l-4.144-9.105H12.948z"/>
<path class="st1" d="M52.34,458.208c-3.908-6.561-8.933-9.91-16.888-9.91c-8.375,0-17.586,5.723-17.586,14.934
	c0,8.236,8.095,12.562,14.655,15.074l7.537,2.932c14.934,5.861,26.1,14.098,26.1,31.684c0,19.121-14.795,32.799-33.637,32.799
	c-17.028,0-30.287-12.562-32.521-29.449l13.26-2.793c-0.14,11.586,9.072,19.959,20.377,19.959c11.306,0,19.401-9.49,19.401-20.516
	c0-11.307-9.072-16.191-18.144-19.959l-7.258-3.07c-12.003-5.164-22.89-12.004-22.89-26.66c0-17.025,15.074-27.215,30.985-27.215
	c11.724,0,21.355,5.721,27.077,15.91L52.34,458.208z M157.157,443.133c-7.956-4.885-17.307-7.117-26.519-7.117
	c-30.985,0-55.968,24.285-55.968,55.41c0,30.426,24.844,54.293,54.852,54.293c9.211,0,19.54-2.652,27.635-7.398v-15.492
	c-7.816,6.979-17.726,10.889-28.054,10.889c-23.448,0-41.313-19.682-41.313-42.711c0-23.309,18.004-42.988,41.592-42.988
	c9.91,0,20.238,3.629,27.775,10.328V443.133z M184.792,480.678v-42.43h-13.12v105.238h13.12v-50.525h50.107v50.525h13.119V438.249
	h-13.119v42.43H184.792z M265.183,438.249v66.576c0,23.168,14.377,40.895,38.523,40.895c24.146,0,38.521-17.727,38.521-40.895
	v-66.576h-13.12v62.109c0,17.168-5.163,33.078-25.4,33.078c-20.238,0-25.403-15.91-25.403-33.078v-62.109H265.183z M373.49,438.249
	h-13.119v105.238h45.082v-12.004H373.49V438.249z M414.106,543.487h56.526v-12.004h-43.406v-39.777h42.15v-12.004h-42.15v-29.449
	h43.406v-12.004h-56.526V543.487z"/>
<path class="st2" d="M441.148,226.795c-23.125-14.602-54.449-26.232-87.611-38.546c-72.514-26.925-147.496-54.766-144.798-115.541
	l0.008-0.335c0-9.129,2.083-17.854,6.19-25.929c9.835-19.328,29.403-31.334,51.07-31.334c29.367,0,54.037,23.451,57.384,54.549
	c0,0,0.862,6.456,1.41,8.947c2.584,13.108,9.846,23.206,22.205,30.868c0.672,0.416,1.112,0.756,1.577,1.115
	c0.478,0.369,1.128,0.859,1.935,1.31c0.807,1.318,1.66,2.743,2.464,4.139c1.563,2.712,3.347,5.261,5.071,7.727
	c2.783,3.98,5.412,7.74,7.154,12.078c1.241,3.106,3.577,3.441,4.523,3.441c1.521,0,2.764-0.719,3.762-1.296
	c0.264-0.152,0.52-0.307,0.769-0.42l0.301-0.137l0.266-0.199c2.734-2.061,2.796-4.609,2.598-7.486l-0.068-0.466
	c-0.533-2.334-1.346-4.584-2.133-6.76c-1.703-4.713-3.213-8.912-1.802-13.274c0.401-0.089,0.799-0.218,1.189-0.395
	c5.137-2.324,7.719-6.971,7.083-12.736c-1.629-15.067-9.388-27.095-21.842-33.865c-6.5-3.541-15.638-3.816-22.892-2.925
	c-3.309-14.829-10.825-28.452-21.693-39.021C301.803,7.21,284.308,0,266.006,0c-27.381,0-52.111,15.171-64.538,39.594
	c-5.172,10.169-7.808,21.14-7.833,32.612c-3.045,71.655,80.725,102.763,154.641,130.208c61.467,22.822,119.523,44.379,114.58,83.051
	l-0.047,0.507c-0.116,1.722-3.55,42.179-66.187,43.349H20.872c3.152-10.258,12.364-30.21,39.21-56.188
	c28.063-27.154,38.688-55.98,42.706-73.847c2.485-0.023,5.535-0.049,8.777-0.067c-5.307,15.223-6.534,29.893-3.471,43.614
	c4.973,22.272,23.939,52.293,86.058,68.83l3.887-14.602c-43.371-11.545-69.374-31.436-75.198-57.521
	c-6.7-30.011,13.702-68.35,56.155-106.012c3.756,7.255,11.228,18.486,27.876,31.784c26.228,20.949,66.983,40.566,121.131,58.309
	c28.958,9.487,88.105,34.296,100.293,51.371l12.299-8.779c-19.264-26.987-107.01-56.664-107.887-56.951
	c-52.43-17.178-91.594-35.937-116.406-55.755c-19.015-15.188-23.955-26.7-26.064-31.617c-1.229-2.865-2.76-6.431-7.033-7.445
	c-2.562-0.608-5.25,0.068-7.375,1.855c-26.96,22.685-46.411,45.662-57.739,67.786c-10.5,0.017-27.919,0.242-27.919,0.242
	l-1.051,6.211c-2.531,14.95-11.035,44.149-39.545,71.737C4.637,305.759,4.131,335.629,4.132,336.879l0.003,7.551h392.628h0.068
	c39.725-0.723,59.633-15.992,69.34-28.674c10.02-13.089,11.508-26.217,11.699-28.58C480.752,263.97,468.738,244.217,441.148,226.795
	z M354.074,72.866c7.422,4.035,12.385,10.521,14.578,18.939c-0.754-0.509-1.5-0.963-2.212-1.396l-0.423-0.257
	c-2.158-1.31-3.113-2.08-3.443-3.465c-0.701-2.944-2.962-4.797-5.885-4.836l-0.12-0.001c-2.528,0-4.472,1.402-5.071,3.656
	c-0.762,2.841,0.017,5.41,2.115,7.035c0.836,0.658,0.644,1.582,0.456,2.072c-0.147,0.385-0.286,0.775-0.429,1.163
	c-8.001-5.307-12.354-11.579-14.028-20.16l-0.042-0.202c-0.296-1.323-0.398-2.607-0.509-4.167
	C344.377,70.687,350.585,70.966,354.074,72.866z"/>
</svg>
